HIERARCHY
ROOT Hips
{
	OFFSET -0.001795 -0.223333 0.028219
	CHANNELS 6 Xposition Yposition Zposition Zrotation Yrotation Xrotation 
	JOINT LeftUpLeg
	{
		OFFSET 0.069520 -0.091406 -0.006815
		CHANNELS 3 Zrotation Yrotation Xrotation
		JOINT LeftLeg
		{
			OFFSET 0.034277 -0.375199 -0.004496
			CHANNELS 3 Zrotation Yrotation Xrotation
			JOINT LeftFoot
			{
				OFFSET -0.013596 -0.397961 -0.043693
				CHANNELS 3 Zrotation Yrotation Xrotation
				JOINT LeftToe
				{
					OFFSET 0.026358 -0.055791 0.119288
					CHANNELS 3 Zrotation Yrotation Xrotation
					End Site
					{
						OFFSET 0.000000 0.000000 0.000000
					}
				}
			}
		}
	}
	JOINT RightUpLeg
	{
		OFFSET -0.067670 -0.090522 -0.004320
		CHANNELS 3 Zrotation Yrotation Xrotation
		JOINT RightLeg
		{
			OFFSET -0.038290 -0.382569 -0.008850
			CHANNELS 3 Zrotation Yrotation Xrotation
			JOINT RightFoot
			{
				OFFSET 0.015774 -0.398415 -0.042312
				CHANNELS 3 Zrotation Yrotation Xrotation
				JOINT RightToe
				{
					OFFSET -0.025372 -0.048144 0.123348
					CHANNELS 3 Zrotation Yrotation Xrotation
					End Site
					{
						OFFSET 0.000000 0.000000 0.000000
					}
				}
			}
		}
	}
	JOINT Spine
	{
		OFFSET -0.002533 0.108963 -0.026696
		CHANNELS 3 Zrotation Yrotation Xrotation
		JOINT Spine1
		{
			OFFSET 0.005487 0.135180 0.001092
			CHANNELS 3 Zrotation Yrotation Xrotation
			JOINT Spine2
			{
				OFFSET 0.001457 0.052922 0.025425
				CHANNELS 3 Zrotation Yrotation Xrotation
				JOINT Neck
				{
					OFFSET -0.002778 0.213870 -0.042857
					CHANNELS 3 Zrotation Yrotation Xrotation
					JOINT Head
					{
						OFFSET 0.005152 0.064970 0.051349
						CHANNELS 3 Zrotation Yrotation Xrotation
						End Site
						{
							OFFSET 0.000000 0.000000 0.000000
						}
					}
				}
				JOINT LeftShoulder
				{
					OFFSET 0.078845 0.121749 -0.034090
					CHANNELS 3 Zrotation Yrotation Xrotation
					JOINT LeftArm
					{
						OFFSET 0.090977 0.030469 -0.008868
						CHANNELS 3 Zrotation Yrotation Xrotation
						JOINT LeftForeArm
						{
							OFFSET 0.259612 -0.012772 -0.027456
							CHANNELS 3 Zrotation Yrotation Xrotation
							JOINT LeftHand
							{
								OFFSET 0.249234 0.008986 -0.001171
								CHANNELS 3 Zrotation Yrotation Xrotation
								End Site
								{
									OFFSET 0.000000 0.000000 0.000000
								}
							}
						}
					}
				}
				JOINT RightShoulder
				{
					OFFSET -0.081759 0.118833 -0.038615
					CHANNELS 3 Zrotation Yrotation Xrotation
					JOINT RightArm
					{
						OFFSET -0.096012 0.032551 -0.009143
						CHANNELS 3 Zrotation Yrotation Xrotation
						JOINT RightForeArm
						{
							OFFSET -0.253742 -0.013329 -0.021401
							CHANNELS 3 Zrotation Yrotation Xrotation
							JOINT RightHand
							{
								OFFSET -0.255298 0.007772 -0.005559
								CHANNELS 3 Zrotation Yrotation Xrotation
								End Site
								{
									OFFSET 0.000000 0.000000 0.000000
								}
							}
						}
					}
				}
			}
		}
	}
}
MOTION
Frames: 11
Frame Time: 0.050000
0.000000 0.947705 0.000000 0.032303 1.740058 1.863061 -2.715078 0.548481 4.388536 -1.300726 0.249802 -5.050603 4.638434 11.895150 10.038032 0.000000 0.000000 0.000000 -3.475761 0.024783 0.801740 2.099947 -0.193056 1.825882 -5.827950 -15.596344 10.757754 0.000000 0.000000 0.000000 5.261166 -1.037323 10.859394 -6.610569 2.172406 -25.272456 -0.139412 5.780108 27.712655 9.120137 -3.651801 -20.707443 0.000000 0.000000 0.000000 -5.771868 2.499769 -1.759985 -20.710185 -0.670783 -3.122256 14.495194 -17.852082 -1.908229 0.000000 0.000000 0.000000 16.824157 -9.570107 -4.591714 21.805375 5.032514 -3.054672 -15.771344 15.270252 -0.964216 0.000000 0.000000 0.000000 
0.000874 0.947116 0.004895 -0.118914 1.389952 2.314192 -2.428811 0.589996 4.882260 -1.683923 0.295172 -6.199664 4.710653 12.011718 10.176200 0.000000 0.000000 0.000000 -3.342971 0.066942 0.248625 1.755257 -0.148433 1.794976 -5.723193 -15.518707 11.849093 0.000000 0.000000 0.000000 5.500771 -1.100593 11.191656 -6.444022 2.060222 -26.855858 -0.492465 5.855777 28.187557 8.192172 -3.105889 -20.465113 0.000000 0.000000 0.000000 -2.576292 1.648878 -0.954898 -21.564659 -1.037764 -3.284391 14.189089 -14.832282 -1.524776 0.000000 0.000000 0.000000 17.101691 -10.117997 -4.944781 21.831123 3.116407 -3.298909 -16.732271 18.435956 -1.395434 0.000000 0.000000 0.000000 
0.002801 0.945466 0.010085 -0.201562 0.237295 1.716408 -1.940267 0.650161 5.709063 -2.877726 0.362214 -5.769699 5.290918 12.810295 9.728924 0.000000 0.000000 0.000000 -3.964189 0.055866 0.751833 2.723887 -0.249663 2.543465 -5.453621 -15.006820 10.696578 0.000000 0.000000 0.000000 6.218141 -1.182942 11.447701 -7.348234 2.235255 -27.131425 0.093292 7.101541 29.394914 8.948106 -3.494590 -20.792194 0.000000 0.000000 0.000000 -1.894861 1.638569 -0.876690 -20.354448 -2.377510 -2.970123 13.820098 -17.651738 -1.812005 0.000000 0.000000 0.000000 18.153245 -11.100031 -5.448192 21.073374 3.997372 -3.224221 -15.969553 18.557614 -1.289932 0.000000 0.000000 0.000000 
0.005934 0.943601 0.015706 -0.039966 0.547042 1.079559 -2.420215 0.815515 6.940865 -2.590438 0.347272 -6.039891 5.180359 12.549072 9.118420 0.000000 0.000000 0.000000 -4.526159 0.084930 0.408933 3.466234 -0.319965 6.050794 -5.792973 -15.384305 8.205702 0.000000 0.000000 0.000000 5.984936 -1.180721 11.810912 -7.368452 2.253645 -27.115594 0.079690 7.067193 30.528248 9.921106 -4.024052 -21.597864 0.000000 0.000000 0.000000 -1.327366 0.552289 -0.405356 -20.760211 -3.629709 -2.943801 16.220578 -18.256467 -2.304324 0.000000 0.000000 0.000000 18.750625 -11.757880 -5.804316 21.505055 3.984138 -3.379557 -17.862016 19.540514 -1.605059 0.000000 0.000000 0.000000 
0.010142 0.942198 0.022203 0.041283 -0.120207 0.698705 -2.423109 0.840044 7.132754 -3.391681 0.392431 -4.816956 5.574941 13.091981 8.565847 0.000000 0.000000 0.000000 -5.731570 0.236913 -1.887843 4.720576 -0.521518 11.809020 -5.462063 -14.635454 7.147695 0.000000 0.000000 0.000000 5.353597 -1.194571 12.972286 -6.371683 2.024658 -27.501094 -0.212536 7.783963 30.853174 11.367862 -4.934830 -21.818727 0.000000 0.000000 0.000000 -1.757886 0.996720 -0.629096 -20.646596 -4.878470 -2.797059 15.179676 -21.106260 -2.486748 0.000000 0.000000 0.000000 18.861572 -12.453751 -6.158929 21.693930 4.838208 -3.341347 -16.898504 19.950418 -1.488166 0.000000 0.000000 0.000000 
0.014615 0.940399 0.029776 -0.067494 -0.393239 -0.259663 -2.732934 0.922532 7.675502 -3.202368 0.371932 -2.993658 5.936230 13.565351 7.628144 0.000000 0.000000 0.000000 -6.412019 0.349039 -4.545448 5.381530 -0.705170 19.474200 -5.103662 -13.922367 7.131749 0.000000 0.000000 0.000000 5.100991 -1.200169 13.633641 -6.619781 2.136801 -26.081042 0.286238 6.427957 31.037490 11.372122 -4.952594 -22.993766 0.000000 0.000000 0.000000 -1.800457 0.167085 -0.276353 -22.310328 -5.556264 -3.000706 15.559502 -21.283907 -2.448176 0.000000 0.000000 0.000000 17.794855 -11.937434 -6.044369 23.287836 5.870355 -3.289901 -17.205890 20.089779 -1.581776 0.000000 0.000000 0.000000 
0.018043 0.939826 0.039557 -0.439054 -0.107254 -1.362511 -2.640526 1.112941 9.485551 -2.859595 0.341428 -2.905598 5.822876 13.339053 7.315729 0.000000 0.000000 0.000000 -7.088967 0.463646 -8.435820 7.161433 -1.466299 29.035928 -5.365783 -14.902390 10.950338 0.000000 0.000000 0.000000 4.909321 -1.299116 15.205270 -5.324141 1.855769 -26.203894 -1.008989 5.040993 31.496146 12.527859 -5.846115 -23.629857 0.000000 0.000000 0.000000 -3.253111 -0.876855 0.039288 -22.747748 -6.090056 -3.071415 15.076147 -21.662010 -2.292446 0.000000 0.000000 0.000000 20.026393 -11.523008 -6.303447 22.797429 6.942056 -3.075956 -16.447476 22.725558 -1.828142 0.000000 0.000000 0.000000 
0.019993 0.938365 0.052377 -0.986984 -1.256094 -1.357030 -2.406229 1.187471 10.195492 -2.794404 0.339337 -2.594344 6.433646 14.349586 7.140481 0.000000 0.000000 0.000000 -6.879150 0.724634 -13.765863 8.080642 -1.844085 35.082794 -7.519848 -19.195220 19.707343 0.000000 0.000000 0.000000 5.258537 -1.375144 15.755066 -4.901192 1.740562 -26.067587 -1.406181 4.136179 32.065426 11.696652 -5.326048 -24.981608 0.000000 0.000000 0.000000 -5.461095 -2.653962 0.707082 -24.150307 -6.622043 -3.281679 15.705938 -21.460015 -2.246817 0.000000 0.000000 0.000000 20.753270 -10.657527 -6.274142 24.853598 8.415780 -2.974696 -15.868925 24.488643 -1.958551 0.000000 0.000000 0.000000 
0.020004 0.937337 0.067973 -1.641576 -1.566151 -1.815828 -1.809047 1.283152 11.571777 -2.634952 0.322828 -2.257363 6.625402 14.670939 7.034935 0.000000 0.000000 0.000000 -5.864084 0.997287 -16.936659 8.356064 -1.930642 35.417443 -11.500671 -24.493383 27.544972 0.000000 0.000000 0.000000 5.632120 -1.509734 16.801639 -4.093471 1.567190 -25.135730 -2.679602 3.256203 30.979007 11.875661 -5.650793 -24.620701 0.000000 0.000000 0.000000 -7.669807 -4.649703 1.531104 -24.754088 -7.613199 -3.168645 14.999726 -21.088854 -2.006809 0.000000 0.000000 0.000000 22.584407 -9.470244 -6.138440 26.307776 9.294541 -2.810696 -14.703657 25.731834 -1.897128 0.000000 0.000000 0.000000 
0.018402 0.935312 0.086226 -2.138658 -2.004274 -2.176420 -0.935597 1.371053 13.236231 -3.125423 0.371797 -2.267940 6.769999 14.923267 6.989770 0.000000 0.000000 0.000000 -4.974204 1.330282 -20.187622 7.708506 -1.539335 32.870408 -11.920136 -25.197746 26.034223 0.000000 0.000000 0.000000 5.559655 -1.592941 18.039122 -3.425342 1.397325 -25.169777 -3.367989 2.098621 31.031663 12.263665 -5.989625 -25.428528 0.000000 0.000000 0.000000 -10.191003 -6.413358 2.458603 -25.719096 -8.429614 -3.206753 14.059529 -23.269314 -1.945606 0.000000 0.000000 0.000000 24.607827 -8.482941 -6.277705 28.067216 10.341190 -2.621074 -12.834026 28.698460 -1.794012 0.000000 0.000000 0.000000 
0.015467 0.931567 0.107238 -2.582262 -2.551677 -2.021039 -0.302163 1.370747 13.851041 -3.307107 0.386872 -1.068609 7.181548 15.608263 6.544490 0.000000 0.000000 0.000000 -3.948581 1.682231 -22.366557 7.410194 -1.258080 26.403177 -8.771279 -21.275942 12.317543 0.000000 0.000000 0.000000 5.753873 -1.657257 18.548701 -3.723608 1.462970 -24.550300 -3.601953 1.609806 30.273429 12.524432 -5.979579 -26.599637 0.000000 0.000000 0.000000 -11.789985 -8.720424 3.630021 -27.719546 -10.081027 -3.058756 13.767201 -25.804494 -2.043324 0.000000 0.000000 0.000000 26.239832 -7.899945 -6.486899 31.288427 9.578263 -2.831028 -9.332483 31.973317 -1.112712 0.000000 0.000000 0.000000 
